<?xml version="1.0" encoding="UTF-8" standalone="no"?>
<svg
   xmlns:dc="http://purl.org/dc/elements/1.1/"
   xmlns:cc="http://creativecommons.org/ns#"
   xmlns:rdf="http://www.w3.org/1999/02/22-rdf-syntax-ns#"
   xmlns:svg="http://www.w3.org/2000/svg"
   xmlns="http://www.w3.org/2000/svg"
   version="1.1"
   id="svg7168"
   viewBox="0 0 227.07399 109.34079"
   height="30.8584mm"
   width="64.085327mm">
  <defs
     id="defs7170">
    <clipPath
       clipPathUnits="userSpaceOnUse"
       id="clipPath4177">
      <path
         d="m 42.413,691.192 181.66,0 0,87.473 -181.66,0 0,-87.473 z"
         id="path4179" />
    </clipPath>
  </defs>
  <metadata
     id="metadata7173">
    <rdf:RDF>
      <cc:Work
         rdf:about="">
        <dc:format>image/svg+xml</dc:format>
        <dc:type
           rdf:resource="http://purl.org/dc/dcmitype/StillImage" />
        <dc:title></dc:title>
      </cc:Work>
    </rdf:RDF>
  </metadata>
  <g
     transform="translate(235.67986,-477.69181)"
     id="layer1">
    <g
       id="g6879"
       transform="translate(60.803483,375.6291)">
      <g
         transform="matrix(1.25,0,0,-1.25,-182.70184,111.99012)"
         id="g5610"
         style="fill:#ffffff">
        <path
           id="path5612"
           style="fill:#ffffff;fill-opacity:1;fill-rule:nonzero;stroke:none"
           d="m 0,0 -3.458,0 0,2.133 9.453,0 0,-2.133 -3.458,0 0,-9.405 L 0,-9.405 0,0 Z" />
      </g>
      <g
         transform="matrix(1.25,0,0,-1.25,-349.50059,1075.3935)"
         id="g5614"
         style="fill:#ffffff">
        <g
           clip-path="url(#clipPath4177)"
           id="g5616"
           style="fill:#ffffff">
          <g
             transform="translate(140.2014,772.8559)"
             id="g5618"
             style="fill:#ffffff">
            <path
               id="path5620"
               style="fill:#ffffff;fill-opacity:1;fill-rule:nonzero;stroke:none"
               d="m 0,0 2.295,0 0,-4.347 0.048,0 c 0.582,0.937 1.584,1.389 2.441,1.389 2.44,0 3.054,-1.373 3.054,-3.442 l 0,-5.139 -2.295,0 0,4.719 c 0,1.374 -0.404,2.053 -1.471,2.053 -1.244,0 -1.777,-0.695 -1.777,-2.392 l 0,-4.38 -2.295,0 L 0,0 Z" />
          </g>
          <g
             transform="translate(149.5469,769.6722)"
             id="g5622"
             style="fill:#ffffff">
            <path
               id="path5624"
               style="fill:#ffffff;fill-opacity:1;fill-rule:nonzero;stroke:none"
               d="m 0,0 2.182,0 0,-1.551 0.033,0 c 0.419,1.05 1.551,1.777 2.666,1.777 0.161,0 0.355,-0.032 0.5,-0.08 l 0,-2.134 c -0.21,0.049 -0.549,0.081 -0.823,0.081 -1.681,0 -2.263,-1.212 -2.263,-2.683 l 0,-3.765 L 0,-8.355 0,0 Z" />
          </g>
          <g
             transform="translate(161.2281,766.3915)"
             id="g5626"
             style="fill:#ffffff">
            <path
               id="path5628"
               style="fill:#ffffff;fill-opacity:1;fill-rule:nonzero;stroke:none"
               d="M 0,0 C -0.211,1.164 -0.712,1.778 -1.827,1.778 -3.281,1.778 -3.701,0.647 -3.733,0 L 0,0 Z m -3.733,-1.454 c 0.064,-1.455 0.775,-2.117 2.052,-2.117 0.921,0 1.664,0.565 1.81,1.082 l 2.02,0 c -0.646,-1.971 -2.02,-2.812 -3.911,-2.812 -2.634,0 -4.267,1.81 -4.267,4.396 0,2.505 1.73,4.412 4.267,4.412 2.844,0 4.218,-2.392 4.056,-4.961 l -6.027,0 z" />
          </g>
          <g
             transform="translate(169.7282,765.4058)"
             id="g5630"
             style="fill:#ffffff">
            <path
               id="path5632"
               style="fill:#ffffff;fill-opacity:1;fill-rule:nonzero;stroke:none"
               d="m 0,0 c -0.387,-0.339 -1.195,-0.355 -1.906,-0.485 -0.712,-0.145 -1.358,-0.388 -1.358,-1.228 0,-0.857 0.663,-1.067 1.406,-1.067 1.794,0 1.858,1.423 1.858,1.924 L 0,0 Z m -5.301,1.697 c 0.13,2.149 2.054,2.796 3.928,2.796 1.665,0 3.668,-0.372 3.668,-2.376 l 0,-4.347 c 0,-0.76 0.081,-1.519 0.291,-1.859 l -2.327,0 C 0.178,-3.83 0.114,-3.555 0.097,-3.281 -0.63,-4.04 -1.697,-4.315 -2.714,-4.315 c -1.585,0 -2.845,0.792 -2.845,2.505 0,1.891 1.422,2.343 2.845,2.537 C -1.308,0.937 0,0.889 0,1.826 c 0,0.986 -0.678,1.131 -1.486,1.131 -0.873,0 -1.439,-0.355 -1.519,-1.26 l -2.296,0 z" />
          </g>
          <g
             transform="translate(176.4217,769.6722)"
             id="g5634"
             style="fill:#ffffff">
            <path
               id="path5636"
               style="fill:#ffffff;fill-opacity:1;fill-rule:nonzero;stroke:none"
               d="m 0,0 1.681,0 0,-1.535 -1.681,0 0,-4.137 c 0,-0.776 0.194,-0.97 0.969,-0.97 0.243,0 0.469,0.016 0.712,0.065 l 0,-1.794 C 1.293,-8.436 0.792,-8.452 0.34,-8.452 c -1.406,0 -2.634,0.323 -2.634,1.988 l 0,4.929 -1.39,0 0,1.535 1.39,0 0,2.505 L 0,2.505 0,0 Z" />
          </g>
          <g
             transform="translate(184.4789,766.3915)"
             id="g5638"
             style="fill:#ffffff">
            <path
               id="path5640"
               style="fill:#ffffff;fill-opacity:1;fill-rule:nonzero;stroke:none"
               d="M 0,0 C -0.21,1.164 -0.711,1.778 -1.826,1.778 -3.281,1.778 -3.701,0.647 -3.733,0 L 0,0 Z m -3.733,-1.454 c 0.065,-1.455 0.776,-2.117 2.052,-2.117 0.921,0 1.665,0.565 1.811,1.082 l 2.019,0 C 1.503,-4.46 0.13,-5.301 -1.762,-5.301 c -2.633,0 -4.266,1.81 -4.266,4.396 0,2.505 1.729,4.412 4.266,4.412 2.844,0 4.218,-2.392 4.057,-4.961 l -6.028,0 z" />
          </g>
          <g
             transform="translate(187.8582,769.6722)"
             id="g5642"
             style="fill:#ffffff">
            <path
               id="path5644"
               style="fill:#ffffff;fill-opacity:1;fill-rule:nonzero;stroke:none"
               d="m 0,0 2.182,0 0,-1.164 0.049,0 c 0.581,0.938 1.583,1.39 2.553,1.39 2.44,0 3.054,-1.373 3.054,-3.442 l 0,-5.139 -2.294,0 0,4.719 c 0,1.373 -0.405,2.052 -1.471,2.052 -1.244,0 -1.778,-0.695 -1.778,-2.391 l 0,-4.38 L 0,-8.355 0,0 Z" />
          </g>
          <g
             transform="translate(202.8115,766.3915)"
             id="g5646"
             style="fill:#ffffff">
            <path
               id="path5648"
               style="fill:#ffffff;fill-opacity:1;fill-rule:nonzero;stroke:none"
               d="M 0,0 C -0.21,1.164 -0.712,1.778 -1.827,1.778 -3.281,1.778 -3.701,0.647 -3.733,0 L 0,0 Z m -3.733,-1.454 c 0.064,-1.455 0.775,-2.117 2.052,-2.117 0.921,0 1.664,0.565 1.81,1.082 l 2.02,0 c -0.646,-1.971 -2.02,-2.812 -3.911,-2.812 -2.634,0 -4.266,1.81 -4.266,4.396 0,2.505 1.729,4.412 4.266,4.412 2.844,0 4.218,-2.392 4.057,-4.961 l -6.028,0 z" />
          </g>
          <g
             transform="translate(210.1505,768.1694)"
             id="g5650"
             style="fill:#ffffff">
            <path
               id="path5652"
               style="fill:#ffffff;fill-opacity:1;fill-rule:nonzero;stroke:none"
               d="m 0,0 c -1.503,0 -2.021,-1.293 -2.021,-2.667 0,-1.309 0.598,-2.682 2.021,-2.682 1.518,0 1.971,1.325 1.971,2.699 C 1.971,-1.293 1.486,0 0,0 m 2.003,-5.786 -0.032,0 c -0.533,-0.904 -1.47,-1.293 -2.537,-1.293 -2.521,0 -3.749,2.166 -3.749,4.477 0,2.246 1.244,4.331 3.7,4.331 0.986,0 1.956,-0.42 2.473,-1.244 l 0.033,0 0,4.202 2.294,0 0,-11.539 -2.182,0 0,1.066 z" />
          </g>
          <g
             transform="translate(132.6143,750.0654)"
             id="g5654"
             style="fill:#ffffff">
            <path
               id="path5656"
               style="fill:#ffffff;fill-opacity:1;fill-rule:nonzero;stroke:none"
               d="m 0,0 c 0,-1.535 1.196,-2.133 2.554,-2.133 0.888,0 2.246,0.258 2.246,1.438 0,1.244 -1.729,1.454 -3.427,1.907 -1.712,0.452 -3.441,1.115 -3.441,3.281 0,2.359 2.23,3.49 4.315,3.49 2.408,0 4.621,-1.05 4.621,-3.717 l -2.456,0 c -0.081,1.39 -1.066,1.746 -2.279,1.746 -0.808,0 -1.745,-0.34 -1.745,-1.31 0,-0.888 0.55,-1.001 3.443,-1.745 0.84,-0.21 3.426,-0.743 3.426,-3.361 0,-2.117 -1.665,-3.701 -4.801,-3.701 -2.553,0 -4.944,1.261 -4.912,4.105 L 0,0 Z" />
          </g>
          <g
             transform="translate(147.2118,750.3885)"
             id="g5658"
             style="fill:#ffffff">
            <path
               id="path5660"
               style="fill:#ffffff;fill-opacity:1;fill-rule:nonzero;stroke:none"
               d="m 0,0 c 0,1.325 -0.534,2.699 -2.004,2.699 -1.503,0 -1.988,-1.342 -1.988,-2.699 0,-1.357 0.517,-2.65 2.004,-2.65 C -0.484,-2.65 0,-1.357 0,0 m -6.206,4.202 2.182,0 0,-1.067 0.032,0 c 0.55,0.889 1.454,1.293 2.489,1.293 2.618,0 3.798,-2.117 3.798,-4.493 0,-2.23 -1.229,-4.315 -3.669,-4.315 -1.002,0 -1.955,0.437 -2.505,1.261 l -0.032,0 0,-3.975 -2.295,0 0,11.296 z" />
          </g>
          <g
             transform="translate(156.2495,751.3096)"
             id="g5662"
             style="fill:#ffffff">
            <path
               id="path5664"
               style="fill:#ffffff;fill-opacity:1;fill-rule:nonzero;stroke:none"
               d="M 0,0 C -0.211,1.164 -0.712,1.778 -1.827,1.778 -3.281,1.778 -3.701,0.646 -3.733,0 L 0,0 Z m -3.733,-1.454 c 0.064,-1.455 0.775,-2.117 2.052,-2.117 0.921,0 1.664,0.565 1.81,1.082 l 2.02,0 c -0.646,-1.971 -2.02,-2.812 -3.911,-2.812 -2.634,0 -4.267,1.81 -4.267,4.396 0,2.505 1.73,4.412 4.267,4.412 2.844,0 4.218,-2.392 4.057,-4.961 l -6.028,0 z" />
          </g>
          <g
             transform="translate(165.2658,751.6492)"
             id="g5666"
             style="fill:#ffffff">
            <path
               id="path5668"
               style="fill:#ffffff;fill-opacity:1;fill-rule:nonzero;stroke:none"
               d="m 0,0 c -0.145,0.937 -0.744,1.438 -1.697,1.438 -1.471,0 -1.956,-1.486 -1.956,-2.715 0,-1.196 0.469,-2.634 1.908,-2.634 1.066,0 1.681,0.679 1.826,1.697 l 2.214,0 C 2.004,-4.428 0.469,-5.64 -1.729,-5.64 c -2.521,0 -4.218,1.778 -4.218,4.282 0,2.602 1.552,4.525 4.266,4.525 C 0.291,3.167 2.101,2.133 2.246,0 L 0,0 Z" />
          </g>
          <path
             id="path5670"
             style="fill:#ffffff;fill-opacity:1;fill-rule:nonzero;stroke:none"
             d="m 168.647,754.59 2.295,0 0,-8.355 -2.295,0 0,8.355 z m 2.295,1.293 -2.295,0 0,1.891 2.295,0 0,-1.891 z" />
          <g
             transform="translate(178.1152,751.3096)"
             id="g5672"
             style="fill:#ffffff">
            <path
               id="path5674"
               style="fill:#ffffff;fill-opacity:1;fill-rule:nonzero;stroke:none"
               d="M 0,0 C -0.21,1.164 -0.711,1.778 -1.826,1.778 -3.281,1.778 -3.701,0.646 -3.733,0 L 0,0 Z m -3.733,-1.454 c 0.065,-1.455 0.776,-2.117 2.052,-2.117 0.922,0 1.665,0.565 1.811,1.082 l 2.019,0 C 1.503,-4.46 0.13,-5.301 -1.761,-5.301 c -2.634,0 -4.267,1.81 -4.267,4.396 0,2.505 1.729,4.412 4.267,4.412 2.843,0 4.218,-2.392 4.056,-4.961 l -6.028,0 z" />
          </g>
          <g
             transform="translate(183.2159,748.9503)"
             id="g5676"
             style="fill:#ffffff">
            <path
               id="path5678"
               style="fill:#ffffff;fill-opacity:1;fill-rule:nonzero;stroke:none"
               d="m 0,0 c 0.016,-1.002 0.856,-1.406 1.762,-1.406 0.662,0 1.502,0.259 1.502,1.066 0,0.695 -0.952,0.938 -2.602,1.293 -1.324,0.291 -2.65,0.76 -2.65,2.231 0,2.133 1.843,2.682 3.637,2.682 1.826,0 3.506,-0.614 3.684,-2.666 l -2.181,0 C 3.087,4.089 2.408,4.331 1.584,4.331 1.067,4.331 0.308,4.234 0.308,3.555 0.308,2.731 1.6,2.618 2.909,2.311 4.251,2.004 5.56,1.519 5.56,-0.032 5.56,-2.23 3.653,-2.941 1.745,-2.941 -0.194,-2.941 -2.084,-2.214 -2.181,0 L 0,0 Z" />
          </g>
          <g
             transform="translate(133.4221,737.4721)"
             id="g5680"
             style="fill:#ffffff">
            <path
               id="path5682"
               style="fill:#ffffff;fill-opacity:1;fill-rule:nonzero;stroke:none"
               d="m 0,0 2.781,0 c 1.131,0 1.744,0.485 1.744,1.648 0,1.115 -0.613,1.6 -1.744,1.6 L 0,3.248 0,0 Z m -2.537,5.22 6.222,0 c 2.069,0 3.377,-1.439 3.377,-3.184 0,-1.357 -0.548,-2.376 -1.826,-2.893 l 0,-0.032 c 1.245,-0.323 1.6,-1.535 1.682,-2.699 0.048,-0.727 0.031,-2.084 0.484,-2.731 l -2.537,0 C 4.558,-5.591 4.59,-4.477 4.46,-3.555 4.283,-2.343 3.814,-1.81 2.538,-1.81 l -2.538,0 0,-4.509 -2.537,0 0,11.539 z" />
          </g>
          <g
             transform="translate(147.5346,736.2276)"
             id="g5684"
             style="fill:#ffffff">
            <path
               id="path5686"
               style="fill:#ffffff;fill-opacity:1;fill-rule:nonzero;stroke:none"
               d="M 0,0 C -0.21,1.164 -0.712,1.778 -1.827,1.778 -3.281,1.778 -3.701,0.646 -3.733,0 L 0,0 Z m -3.733,-1.454 c 0.064,-1.455 0.775,-2.117 2.052,-2.117 0.921,0 1.664,0.565 1.81,1.083 l 2.02,0 c -0.646,-1.972 -2.02,-2.813 -3.911,-2.813 -2.634,0 -4.266,1.811 -4.266,4.396 0,2.505 1.729,4.412 4.266,4.412 2.844,0 4.218,-2.392 4.056,-4.961 l -6.027,0 z" />
          </g>
          <g
             transform="translate(156.5515,736.5673)"
             id="g5688"
             style="fill:#ffffff">
            <path
               id="path5690"
               style="fill:#ffffff;fill-opacity:1;fill-rule:nonzero;stroke:none"
               d="m 0,0 c -0.146,0.937 -0.744,1.438 -1.697,1.438 -1.471,0 -1.956,-1.487 -1.956,-2.715 0,-1.196 0.469,-2.634 1.907,-2.634 1.067,0 1.681,0.679 1.827,1.697 l 2.213,0 C 2.003,-4.428 0.468,-5.64 -1.73,-5.64 c -2.521,0 -4.218,1.778 -4.218,4.282 0,2.602 1.552,4.525 4.267,4.525 C 0.29,3.167 2.101,2.133 2.245,0 L 0,0 Z" />
          </g>
          <g
             transform="translate(163.871,732.6562)"
             id="g5692"
             style="fill:#ffffff">
            <path
               id="path5694"
               style="fill:#ffffff;fill-opacity:1;fill-rule:nonzero;stroke:none"
               d="M 0,0 C 1.568,0 2.036,1.341 2.036,2.667 2.036,4.008 1.568,5.349 0,5.349 -1.552,5.349 -2.02,4.008 -2.02,2.667 -2.02,1.341 -1.552,0 0,0 m 0,7.078 c 2.634,0 4.331,-1.745 4.331,-4.411 0,-2.651 -1.697,-4.396 -4.331,-4.396 -2.618,0 -4.316,1.745 -4.316,4.396 0,2.666 1.698,4.411 4.316,4.411" />
          </g>
          <g
             transform="translate(173.6847,731.1533)"
             id="g5696"
             style="fill:#ffffff">
            <path
               id="path5698"
               style="fill:#ffffff;fill-opacity:1;fill-rule:nonzero;stroke:none"
               d="m 0,0 -2.553,0 -2.861,8.355 2.408,0 1.761,-5.704 0.033,0 1.761,5.704 2.279,0 L 0,0 Z" />
          </g>
          <g
             transform="translate(182.5224,736.2276)"
             id="g5700"
             style="fill:#ffffff">
            <path
               id="path5702"
               style="fill:#ffffff;fill-opacity:1;fill-rule:nonzero;stroke:none"
               d="M 0,0 C -0.211,1.164 -0.712,1.778 -1.827,1.778 -3.281,1.778 -3.701,0.646 -3.733,0 L 0,0 Z m -3.733,-1.454 c 0.064,-1.455 0.775,-2.117 2.052,-2.117 0.921,0 1.664,0.565 1.81,1.083 l 2.02,0 c -0.646,-1.972 -2.02,-2.813 -3.911,-2.813 -2.634,0 -4.267,1.811 -4.267,4.396 0,2.505 1.73,4.412 4.267,4.412 2.844,0 4.218,-2.392 4.056,-4.961 l -6.027,0 z" />
          </g>
          <g
             transform="translate(185.9017,739.5084)"
             id="g5704"
             style="fill:#ffffff">
            <path
               id="path5706"
               style="fill:#ffffff;fill-opacity:1;fill-rule:nonzero;stroke:none"
               d="m 0,0 2.182,0 0,-1.551 0.032,0 c 0.42,1.05 1.552,1.777 2.666,1.777 0.162,0 0.356,-0.032 0.501,-0.08 l 0,-2.134 c -0.21,0.049 -0.549,0.081 -0.824,0.081 -1.681,0 -2.262,-1.212 -2.262,-2.683 l 0,-3.765 L 0,-8.355 0,0 Z" />
          </g>
          <g
             transform="translate(196.5738,730.1031)"
             id="g5708"
             style="fill:#ffffff">
            <path
               id="path5710"
               style="fill:#ffffff;fill-opacity:1;fill-rule:nonzero;stroke:none"
               d="m 0,0 c -0.501,-1.341 -1.293,-1.891 -2.877,-1.891 -0.468,0 -0.937,0.032 -1.405,0.081 l 0,1.891 C -3.847,0.048 -3.394,-0.016 -2.941,0 c 0.792,0.081 1.05,0.905 0.792,1.568 l -2.942,7.837 2.457,0 1.89,-5.721 0.033,0 1.826,5.721 2.375,0 L 0,0 Z" />
          </g>
          <g
             transform="translate(130.9338,727.6104)"
             id="g5712"
             style="fill:#ffffff">
            <path
               id="path5714"
               style="fill:#ffffff;fill-opacity:1;fill-rule:nonzero;stroke:none"
               d="m 0,0 1.099,0 0,-5.01 6.852,0 0,5.01 1.099,0 0,-11.539 -1.099,0 0,5.591 -6.852,0 0,-5.591 -1.099,0 L 0,0 Z" />
          </g>
          <g
             transform="translate(148.4547,716.0717)"
             id="g5716"
             style="fill:#ffffff">
            <path
               id="path5718"
               style="fill:#ffffff;fill-opacity:1;fill-rule:nonzero;stroke:none"
               d="m 0,0 -0.938,0 0,1.503 -0.032,0 c -0.534,-1.116 -1.632,-1.746 -2.877,-1.746 -2.1,0 -2.924,1.228 -2.924,3.168 l 0,5.414 1.017,0 0,-5.43 c 0.049,-1.503 0.614,-2.295 2.231,-2.295 1.744,0 2.504,1.649 2.504,3.345 l 0,4.38 L 0,8.339 0,0 Z" />
          </g>
          <g
             transform="translate(153.9138,723.7961)"
             id="g5720"
             style="fill:#ffffff">
            <path
               id="path5722"
               style="fill:#ffffff;fill-opacity:1;fill-rule:nonzero;stroke:none"
               d="m 0,0 c -2.166,0 -2.925,-1.826 -2.925,-3.555 0,-1.729 0.759,-3.556 2.925,-3.556 1.939,0 2.731,1.827 2.731,3.556 C 2.731,-1.826 1.939,0 0,0 m -3.943,3.814 1.018,0 0,-4.784 0.033,0 c 0.436,1.196 1.648,1.827 2.892,1.827 2.537,0 3.749,-2.053 3.749,-4.412 0,-2.36 -1.212,-4.412 -3.749,-4.412 -1.341,0 -2.505,0.695 -2.973,1.826 l -0.033,0 0,-1.583 -0.937,0 0,11.538 z" />
          </g>
          <g
             transform="translate(91.3767,769.5084)"
             id="g5724"
             style="fill:#ffffff">
            <path
               id="path5726"
               style="fill:#ffffff;fill-opacity:1;fill-rule:nonzero;stroke:none"
               d="m 0,0 c 1.935,-2.426 1.866,-5.489 3.359,-8.198 1.331,-2.414 6.464,-5.948 9.657,-3.779 2.897,1.969 2.155,5.897 1.715,8.559 C 14.214,-0.276 14.525,3.711 13.392,6.675 12.026,10.253 7.688,9.271 4.518,7.986 1.648,6.822 -0.994,5.374 -4.287,5.228 -7.479,5.086 -10.873,5.641 -13.992,6.132 -9.925,5.492 -4.359,3.623 -1.311,1.282 -0.789,0.881 -0.359,0.452 0,0" />
          </g>
          <g
             transform="translate(107.4136,755.2455)"
             id="g5728"
             style="fill:#ffffff">
            <path
               id="path5730"
               style="fill:#ffffff;fill-opacity:1;fill-rule:nonzero;stroke:none"
               d="m 0,0 c -0.947,-0.458 -2.101,-0.701 -3.498,-0.642 -3.685,0.155 -8.416,2.89 -11.417,-0.221 -4.246,-4.405 2.529,-10.505 7.035,-12.403 5.043,-2.126 12.085,-3.027 16.606,0.355 2.151,1.61 2.758,4.476 2.187,6.744 C 9.589,-0.9 6.484,5.031 3.974,10.035 4.258,6.809 3.681,1.779 0,0" />
          </g>
          <g
             transform="translate(72.1773,741.4749)"
             id="g5732"
             style="fill:#ffffff">
            <path
               id="path5734"
               style="fill:#ffffff;fill-opacity:1;fill-rule:nonzero;stroke:none"
               d="m 0,0 c -0.187,1.546 0.33,2.987 1.059,4.383 0.727,1.395 1.665,2.746 2.318,4.106 0.963,2.005 2.461,5.138 0.301,6.998 -4.156,3.575 -11.444,-1.457 -14.488,-3.649 -3.115,-2.243 -5.552,-5.176 -7.032,-8.713 -1.642,-3.923 -3.061,-8.354 -0.532,-12.2 2.496,-3.795 8.301,-6.327 12.333,-3.302 1.499,1.125 2.851,2.41 4.277,3.618 1.388,1.178 2.887,2.443 4.529,3.249 1.598,0.785 3.522,0.896 5.262,1.13 0.55,0.074 1.101,0.148 1.651,0.228 -0.713,0.584 -1.64,0.853 -2.638,0.997 -1.835,0.15 -3.709,0.15 -5.695,0.888 C 0.635,-1.843 0.139,-1.149 0,0" />
          </g>
          <g
             transform="translate(69.8711,760.137)"
             id="g5736"
             style="fill:#ffffff">
            <path
               id="path5738"
               style="fill:#ffffff;fill-opacity:1;fill-rule:nonzero;stroke:none"
               d="m 0,0 c 2.655,0.567 5.504,0.824 8.559,0.863 3.89,0.05 14.899,-0.391 11.357,5.342 -0.25,0.404 -0.573,0.792 -0.944,1.157 -4.97,3.675 -14.566,10.159 -19.205,2.571 -3.244,-5.307 -9.353,-8.461 -14.576,-12.337 -1.943,-1.443 -5.438,-5.111 -4.251,-7.393 2.038,-3.914 5.423,2.15 6.688,3.371 C -8.801,-2.978 -4.704,-1.004 0,0" />
          </g>
          <g
             transform="translate(112.8668,717.7607)"
             id="g5740"
             style="fill:#ffffff">
            <path
               id="path5742"
               style="fill:#ffffff;fill-opacity:1;fill-rule:nonzero;stroke:none"
               d="m 0,0 c -1.903,-0.155 -3.923,0.737 -5.347,1.041 -1.107,0.237 -2.637,0.418 -3.46,-0.331 -0.85,-0.774 -0.876,-1.813 -0.28,-2.887 0.752,-1.355 2.475,-2.935 4.71,-2.949 C -0.323,-5.15 3.91,-1.655 5.216,3.459 3.653,1.023 2.168,0.173 0,0" />
          </g>
          <g
             transform="translate(82.1107,739.9031)"
             id="g5744"
             style="fill:#ffffff">
            <path
               id="path5746"
               style="fill:#ffffff;fill-opacity:1;fill-rule:nonzero;stroke:none"
               d="M 0,0 C -0.365,0.09 -0.739,0.158 -1.134,0.236 -1.563,0.32 -1.99,0.415 -2.411,0.531 -3.153,0.734 -3.896,1.001 -4.54,1.43 c -1.199,0.796 -1.528,2.001 -0.71,3.224 0.571,0.851 1.45,1.745 2.29,2.331 4.571,3.187 9.714,-0.659 13.176,-3.8 0,0 13.577,-10.825 24.057,-3.057 0,0 1.637,-23.469 -16.245,-9.912 -0.518,0.287 -1.036,0.572 -1.554,0.859 -1.256,0.696 -2.514,1.387 -3.766,2.089 -1.575,0.884 -3.158,1.752 -4.734,2.631 -1.488,0.83 -2.972,1.68 -4.475,2.481 -0.74,0.394 -1.435,0.868 -2.182,1.25 C 0.874,-0.248 0.443,-0.109 0,0" />
          </g>
          <g
             transform="translate(42.4138,700.1156)"
             id="g5748"
             style="fill:#ffffff">
            <path
               id="path5750"
               style="fill:#ffffff;fill-opacity:1;fill-rule:nonzero;stroke:none"
               d="m 0,0 0.738,0 4.035,-5.859 0.019,0 0,5.859 0.66,0 0,-6.926 -0.738,0 -4.035,5.858 -0.019,0 0,-5.858 -0.66,0 L 0,0 Z" />
          </g>
          <g
             transform="translate(52.1307,695.9253)"
             id="g5752"
             style="fill:#ffffff">
            <path
               id="path5754"
               style="fill:#ffffff;fill-opacity:1;fill-rule:nonzero;stroke:none"
               d="m 0,0 -0.02,0 c -0.077,-0.146 -0.348,-0.194 -0.514,-0.223 -1.037,-0.185 -2.328,-0.174 -2.328,-1.154 0,-0.612 0.544,-0.991 1.116,-0.991 0.931,0 1.755,0.592 1.746,1.572 L 0,0 Z m -3.259,0.737 c 0.058,1.173 0.882,1.679 2.027,1.679 0.883,0 1.843,-0.272 1.843,-1.611 l 0,-2.658 c 0,-0.233 0.116,-0.368 0.359,-0.368 0.068,0 0.145,0.018 0.194,0.038 l 0,-0.514 C 1.028,-2.726 0.931,-2.736 0.766,-2.736 c -0.621,0 -0.718,0.35 -0.718,0.874 l -0.019,0 c -0.427,-0.65 -0.864,-1.019 -1.824,-1.019 -0.921,0 -1.678,0.455 -1.678,1.464 0,1.407 1.368,1.455 2.687,1.611 C -0.282,0.252 0,0.32 0,0.873 c 0,0.824 -0.592,1.028 -1.31,1.028 -0.756,0 -1.319,-0.35 -1.338,-1.164 l -0.611,0 z" />
          </g>
          <g
             transform="translate(54.6248,698.1948)"
             id="g5756"
             style="fill:#ffffff">
            <path
               id="path5758"
               style="fill:#ffffff;fill-opacity:1;fill-rule:nonzero;stroke:none"
               d="m 0,0 1.019,0 0,-0.514 -1.019,0 0,-3.376 c 0,-0.398 0.058,-0.63 0.495,-0.659 0.175,0 0.349,0.009 0.524,0.029 l 0,-0.524 c -0.185,0 -0.359,-0.02 -0.543,-0.02 -0.815,0 -1.096,0.272 -1.087,1.126 l 0,3.424 -0.873,0 0,0.514 0.873,0 0,1.503 L 0,1.503 0,0 Z" />
          </g>
          <path
             id="path5760"
             style="fill:#ffffff;fill-opacity:1;fill-rule:nonzero;stroke:none"
             d="m 56.204,698.195 0.611,0 0,-5.005 -0.611,0 0,5.005 z m 0,1.921 0.611,0 0,-0.98 -0.611,0 0,0.98 z" />
          <g
             transform="translate(58.1176,695.6922)"
             id="g5762"
             style="fill:#ffffff">
            <path
               id="path5764"
               style="fill:#ffffff;fill-opacity:1;fill-rule:nonzero;stroke:none"
               d="m 0,0 c 0,-1.067 0.582,-2.134 1.756,-2.134 1.173,0 1.755,1.067 1.755,2.134 0,1.067 -0.582,2.134 -1.755,2.134 C 0.582,2.134 0,1.067 0,0 m 4.122,0 c 0,-1.436 -0.834,-2.648 -2.366,-2.648 -1.533,0 -2.367,1.212 -2.367,2.648 0,1.436 0.834,2.649 2.367,2.649 1.532,0 2.366,-1.213 2.366,-2.649" />
          </g>
          <g
             transform="translate(62.9256,698.1948)"
             id="g5766"
             style="fill:#ffffff">
            <path
               id="path5768"
               style="fill:#ffffff;fill-opacity:1;fill-rule:nonzero;stroke:none"
               d="m 0,0 0.611,0 0,-0.863 0.019,0 c 0.224,0.601 0.893,1.009 1.601,1.009 1.406,0 1.833,-0.738 1.833,-1.93 l 0,-3.221 -0.611,0 0,3.123 c 0,0.864 -0.281,1.514 -1.271,1.514 -0.97,0 -1.552,-0.738 -1.571,-1.718 l 0,-2.919 L 0,-5.005 0,0 Z" />
          </g>
          <g
             transform="translate(71.1218,695.9253)"
             id="g5770"
             style="fill:#ffffff">
            <path
               id="path5772"
               style="fill:#ffffff;fill-opacity:1;fill-rule:nonzero;stroke:none"
               d="m 0,0 -0.02,0 c -0.077,-0.146 -0.348,-0.194 -0.514,-0.223 -1.037,-0.185 -2.328,-0.174 -2.328,-1.154 0,-0.612 0.544,-0.991 1.116,-0.991 0.931,0 1.755,0.592 1.746,1.572 L 0,0 Z m -3.259,0.737 c 0.058,1.173 0.882,1.679 2.027,1.679 0.883,0 1.843,-0.272 1.843,-1.611 l 0,-2.658 c 0,-0.233 0.116,-0.368 0.359,-0.368 0.068,0 0.145,0.018 0.194,0.038 l 0,-0.514 C 1.028,-2.726 0.931,-2.736 0.766,-2.736 c -0.621,0 -0.718,0.35 -0.718,0.874 l -0.019,0 c -0.427,-0.65 -0.864,-1.019 -1.824,-1.019 -0.921,0 -1.678,0.455 -1.678,1.464 0,1.407 1.368,1.455 2.687,1.611 C -0.282,0.252 0,0.32 0,0.873 c 0,0.824 -0.592,1.028 -1.309,1.028 -0.757,0 -1.32,-0.35 -1.339,-1.164 l -0.611,0 z" />
          </g>
          <path
             id="path5774"
             style="fill:#ffffff;fill-opacity:1;fill-rule:nonzero;stroke:none"
             d="m 72.768,700.116 0.611,0 0,-6.926 -0.611,0 0,6.926 z" />
          <g
             transform="translate(77.0154,700.1156)"
             id="g5776"
             style="fill:#ffffff">
            <path
               id="path5778"
               style="fill:#ffffff;fill-opacity:1;fill-rule:nonzero;stroke:none"
               d="m 0,0 4.986,0 0,-1.047 -3.774,0 0,-1.815 3.493,0 0,-0.989 -3.493,0 0,-2.028 3.841,0 0,-1.047 L 0,-6.926 0,0 Z" />
          </g>
          <g
             transform="translate(82.7702,698.2045)"
             id="g5780"
             style="fill:#ffffff">
            <path
               id="path5782"
               style="fill:#ffffff;fill-opacity:1;fill-rule:nonzero;stroke:none"
               d="m 0,0 1.048,0 0,-0.737 0.019,-0.019 c 0.33,0.552 0.902,0.892 1.562,0.892 1.086,0 1.775,-0.582 1.775,-1.707 l 0,-3.444 -1.106,0 0,3.152 c -0.019,0.786 -0.33,1.126 -0.98,1.126 -0.737,0 -1.212,-0.582 -1.212,-1.319 l 0,-2.959 L 0,-5.015 0,0 Z" />
          </g>
          <g
             transform="translate(87.4723,698.2045)"
             id="g5784"
             style="fill:#ffffff">
            <path
               id="path5786"
               style="fill:#ffffff;fill-opacity:1;fill-rule:nonzero;stroke:none"
               d="m 0,0 1.202,0 1.271,-3.851 0.02,0 L 3.715,0 4.859,0 3.065,-5.015 1.823,-5.015 0,0 Z" />
          </g>
          <path
             id="path5788"
             style="fill:#ffffff;fill-opacity:1;fill-rule:nonzero;stroke:none"
             d="m 92.821,698.205 1.106,0 0,-5.015 -1.106,0 0,5.015 z m 0,1.911 1.106,0 0,-1.047 -1.106,0 0,1.047 z" />
          <g
             transform="translate(94.8904,698.2045)"
             id="g5790"
             style="fill:#ffffff">
            <path
               id="path5792"
               style="fill:#ffffff;fill-opacity:1;fill-rule:nonzero;stroke:none"
               d="m 0,0 1.038,0 0,-0.97 0.019,0 c 0.126,0.534 0.786,1.106 1.465,1.106 0.252,0 0.32,-0.02 0.417,-0.029 l 0,-1.067 c -0.155,0.019 -0.32,0.048 -0.475,0.048 -0.757,0 -1.358,-0.611 -1.358,-1.717 l 0,-2.386 L 0,-5.015 0,0 Z" />
          </g>
          <g
             transform="translate(101.8742,695.7019)"
             id="g5794"
             style="fill:#ffffff">
            <path
               id="path5796"
               style="fill:#ffffff;fill-opacity:1;fill-rule:nonzero;stroke:none"
               d="m 0,0 c 0,0.863 -0.437,1.766 -1.426,1.766 -0.989,0 -1.426,-0.903 -1.426,-1.766 0,-0.873 0.437,-1.775 1.426,-1.775 C -0.437,-1.775 0,-0.873 0,0 m -3.958,0 c 0,1.533 0.922,2.639 2.532,2.639 1.61,0 2.532,-1.106 2.532,-2.639 0,-1.542 -0.922,-2.648 -2.532,-2.648 -1.61,0 -2.532,1.106 -2.532,2.648" />
          </g>
          <g
             transform="translate(103.6903,698.2045)"
             id="g5798"
             style="fill:#ffffff">
            <path
               id="path5800"
               style="fill:#ffffff;fill-opacity:1;fill-rule:nonzero;stroke:none"
               d="m 0,0 1.048,0 0,-0.737 0.019,-0.019 c 0.33,0.552 0.902,0.892 1.562,0.892 1.086,0 1.775,-0.582 1.775,-1.707 l 0,-3.444 -1.106,0 0,3.152 c -0.019,0.786 -0.33,1.126 -0.98,1.126 -0.737,0 -1.212,-0.582 -1.212,-1.319 l 0,-2.959 L 0,-5.015 0,0 Z" />
          </g>
          <g
             transform="translate(109.0467,698.2045)"
             id="g5802"
             style="fill:#ffffff">
            <path
               id="path5804"
               style="fill:#ffffff;fill-opacity:1;fill-rule:nonzero;stroke:none"
               d="m 0,0 1.048,0 0,-0.699 0.029,0 c 0.329,0.495 0.747,0.835 1.542,0.835 0.612,0 1.184,-0.262 1.406,-0.835 0.369,0.515 0.845,0.835 1.572,0.835 1.057,0 1.678,-0.466 1.678,-1.688 l 0,-3.463 -1.105,0 0,2.93 c 0,0.795 -0.049,1.348 -0.912,1.348 -0.747,0 -1.068,-0.495 -1.068,-1.339 l 0,-2.939 -1.106,0 0,3.221 c 0,0.688 -0.213,1.057 -0.882,1.057 -0.572,0 -1.096,-0.466 -1.096,-1.3 l 0,-2.978 L 0,-5.015 0,0 Z" />
          </g>
          <g
             transform="translate(120.7097,696.1383)"
             id="g5806"
             style="fill:#ffffff">
            <path
               id="path5808"
               style="fill:#ffffff;fill-opacity:1;fill-rule:nonzero;stroke:none"
               d="M 0,0 C -0.038,0.699 -0.514,1.329 -1.26,1.329 -2.027,1.329 -2.551,0.747 -2.58,0 L 0,0 Z m -2.58,-0.727 c 0,-0.786 0.427,-1.484 1.348,-1.484 0.64,0 1.029,0.28 1.223,0.834 l 1.047,0 c -0.242,-1.096 -1.174,-1.707 -2.27,-1.707 -1.571,0 -2.454,1.095 -2.454,2.638 0,1.426 0.931,2.649 2.426,2.649 1.58,0 2.551,-1.427 2.366,-2.93 l -3.686,0 z" />
          </g>
          <g
             transform="translate(122.4688,698.2045)"
             id="g5810"
             style="fill:#ffffff">
            <path
               id="path5812"
               style="fill:#ffffff;fill-opacity:1;fill-rule:nonzero;stroke:none"
               d="m 0,0 1.047,0 0,-0.737 0.02,-0.019 c 0.33,0.552 0.902,0.892 1.562,0.892 1.087,0 1.775,-0.582 1.775,-1.707 l 0,-3.444 -1.106,0 0,3.152 c -0.019,0.786 -0.33,1.126 -0.98,1.126 -0.737,0 -1.212,-0.582 -1.212,-1.319 l 0,-2.959 L 0,-5.015 0,0 Z" />
          </g>
          <g
             transform="translate(127.3033,698.2045)"
             id="g5814"
             style="fill:#ffffff">
            <path
               id="path5816"
               style="fill:#ffffff;fill-opacity:1;fill-rule:nonzero;stroke:none"
               d="m 0,0 0.834,0 0,1.503 1.106,0 0,-1.503 0.999,0 0,-0.825 -0.999,0 0,-2.677 c 0,-0.456 0.039,-0.689 0.533,-0.689 0.156,0 0.311,0 0.466,0.039 l 0,-0.853 c -0.242,-0.02 -0.475,-0.058 -0.718,-0.058 -1.154,0 -1.368,0.445 -1.387,1.28 l 0,2.958 L 0,-0.825 0,0 Z" />
          </g>
          <g
             transform="translate(133.9864,695.7019)"
             id="g5818"
             style="fill:#ffffff">
            <path
               id="path5820"
               style="fill:#ffffff;fill-opacity:1;fill-rule:nonzero;stroke:none"
               d="m 0,0 c -0.34,-0.223 -0.873,-0.214 -1.358,-0.301 -0.476,-0.078 -0.903,-0.252 -0.903,-0.834 0,-0.495 0.631,-0.64 1.019,-0.64 0.484,0 1.242,0.252 1.242,0.951 L 0,0 Z m 1.105,-1.397 c 0,-0.271 0.059,-0.378 0.262,-0.378 0.067,0 0.155,0 0.272,0.019 l 0,-0.766 C 1.474,-2.581 1.125,-2.648 0.94,-2.648 c -0.446,0 -0.766,0.155 -0.854,0.611 -0.436,-0.427 -1.144,-0.611 -1.736,-0.611 -0.902,0 -1.717,0.485 -1.717,1.465 0,1.251 0.999,1.454 1.931,1.561 0.795,0.146 1.504,0.058 1.504,0.708 0,0.573 -0.593,0.68 -1.039,0.68 -0.621,0 -1.058,-0.253 -1.106,-0.796 l -1.105,0 c 0.077,1.29 1.174,1.669 2.279,1.669 0.98,0 2.008,-0.399 2.008,-1.456 l 0,-2.58 z" />
          </g>
          <path
             id="path5822"
             style="fill:#ffffff;fill-opacity:1;fill-rule:nonzero;stroke:none"
             d="m 136.167,700.116 1.106,0 0,-6.926 -1.106,0 0,6.926 z" />
          <g
             transform="translate(141.7326,695.4987)"
             id="g5824"
             style="fill:#ffffff">
            <path
               id="path5826"
               style="fill:#ffffff;fill-opacity:1;fill-rule:nonzero;stroke:none"
               d="m 0,0 c 0,-1.068 0.786,-1.485 1.756,-1.485 1.067,0 1.464,0.524 1.464,1.048 0,0.534 -0.29,0.747 -0.572,0.853 -0.485,0.185 -1.115,0.311 -2.066,0.573 -1.184,0.32 -1.533,1.038 -1.533,1.756 0,1.387 1.281,2.037 2.532,2.037 1.446,0 2.659,-0.766 2.659,-2.212 l -1.213,0 C 2.968,3.463 2.367,3.792 1.533,3.792 0.97,3.792 0.262,3.589 0.262,2.89 0.262,2.405 0.592,2.134 1.086,1.998 1.193,1.969 2.725,1.571 3.084,1.464 3.996,1.192 4.433,0.416 4.433,-0.301 c 0,-1.552 -1.378,-2.173 -2.755,-2.173 -1.581,0 -2.861,0.756 -2.89,2.474 L 0,0 Z" />
          </g>
          <g
             transform="translate(150.2878,696.5266)"
             id="g5828"
             style="fill:#ffffff">
            <path
               id="path5830"
               style="fill:#ffffff;fill-opacity:1;fill-rule:nonzero;stroke:none"
               d="m 0,0 c -0.087,0.611 -0.533,0.941 -1.145,0.941 -0.572,0 -1.377,-0.301 -1.377,-1.824 0,-0.834 0.369,-1.716 1.329,-1.716 0.64,0 1.086,0.426 1.193,1.144 l 1.106,0 c -0.203,-1.3 -1.009,-2.018 -2.299,-2.018 -1.571,0 -2.435,1.116 -2.435,2.59 0,1.513 0.825,2.697 2.474,2.697 C 0.01,1.814 0.999,1.232 1.106,0 L 0,0 Z" />
          </g>
          <path
             id="path5832"
             style="fill:#ffffff;fill-opacity:1;fill-rule:nonzero;stroke:none"
             d="m 152.105,698.205 1.106,0 0,-5.015 -1.106,0 0,5.015 z m 0,1.911 1.106,0 0,-1.047 -1.106,0 0,1.047 z" />
          <g
             transform="translate(157.6275,696.1383)"
             id="g5834"
             style="fill:#ffffff">
            <path
               id="path5836"
               style="fill:#ffffff;fill-opacity:1;fill-rule:nonzero;stroke:none"
               d="M 0,0 C -0.039,0.699 -0.514,1.329 -1.261,1.329 -2.027,1.329 -2.551,0.747 -2.581,0 L 0,0 Z m -2.581,-0.727 c 0,-0.786 0.427,-1.484 1.349,-1.484 0.64,0 1.028,0.28 1.222,0.834 l 1.048,0 c -0.243,-1.096 -1.174,-1.707 -2.27,-1.707 -1.572,0 -2.454,1.095 -2.454,2.638 0,1.426 0.931,2.649 2.425,2.649 1.581,0 2.551,-1.427 2.367,-2.93 l -3.687,0 z" />
          </g>
          <g
             transform="translate(159.3866,698.2045)"
             id="g5838"
             style="fill:#ffffff">
            <path
               id="path5840"
               style="fill:#ffffff;fill-opacity:1;fill-rule:nonzero;stroke:none"
               d="m 0,0 1.047,0 0,-0.737 0.019,-0.019 c 0.331,0.552 0.903,0.892 1.563,0.892 1.086,0 1.775,-0.582 1.775,-1.707 l 0,-3.444 -1.106,0 0,3.152 c -0.019,0.786 -0.33,1.126 -0.98,1.126 -0.737,0 -1.212,-0.582 -1.212,-1.319 l 0,-2.959 L 0,-5.015 0,0 Z" />
          </g>
          <g
             transform="translate(168.112,696.5266)"
             id="g5842"
             style="fill:#ffffff">
            <path
               id="path5844"
               style="fill:#ffffff;fill-opacity:1;fill-rule:nonzero;stroke:none"
               d="m 0,0 c -0.087,0.611 -0.533,0.941 -1.144,0.941 -0.572,0 -1.378,-0.301 -1.378,-1.824 0,-0.834 0.369,-1.716 1.329,-1.716 0.64,0 1.087,0.426 1.193,1.144 l 1.106,0 c -0.203,-1.3 -1.009,-2.018 -2.299,-2.018 -1.571,0 -2.435,1.116 -2.435,2.59 0,1.513 0.825,2.697 2.474,2.697 C 0.01,1.814 0.999,1.232 1.106,0 L 0,0 Z" />
          </g>
          <g
             transform="translate(173.3581,696.1383)"
             id="g5846"
             style="fill:#ffffff">
            <path
               id="path5848"
               style="fill:#ffffff;fill-opacity:1;fill-rule:nonzero;stroke:none"
               d="M 0,0 C -0.038,0.699 -0.514,1.329 -1.26,1.329 -2.027,1.329 -2.551,0.747 -2.58,0 L 0,0 Z m -2.58,-0.727 c 0,-0.786 0.427,-1.484 1.348,-1.484 0.64,0 1.029,0.28 1.223,0.834 l 1.047,0 c -0.242,-1.096 -1.174,-1.707 -2.27,-1.707 -1.571,0 -2.454,1.095 -2.454,2.638 0,1.426 0.931,2.649 2.426,2.649 1.58,0 2.551,-1.427 2.366,-2.93 l -3.686,0 z" />
          </g>
          <g
             transform="translate(178.3893,696.7201)"
             id="g5850"
             style="fill:#ffffff">
            <path
               id="path5852"
               style="fill:#ffffff;fill-opacity:1;fill-rule:nonzero;stroke:none"
               d="m 0,0 2.269,0 c 0.913,0 1.543,0.466 1.543,1.416 0,0.952 -0.63,1.417 -1.543,1.417 L 0,2.833 0,0 Z m -0.66,3.396 3.075,0 c 1.242,0 2.056,-0.728 2.056,-1.98 0,-1.251 -0.814,-1.978 -2.056,-1.978 l -2.415,0 0,-2.969 -0.66,0 0,6.927 z" />
          </g>
          <g
             transform="translate(183.4153,698.1948)"
             id="g5854"
             style="fill:#ffffff">
            <path
               id="path5856"
               style="fill:#ffffff;fill-opacity:1;fill-rule:nonzero;stroke:none"
               d="m 0,0 0.562,0 0,-1.174 0.02,0 c 0.31,0.806 0.989,1.28 1.891,1.242 l 0,-0.611 C 1.368,-0.485 0.611,-1.3 0.611,-2.338 l 0,-2.667 L 0,-5.005 0,0 Z" />
          </g>
          <g
             transform="translate(186.4932,695.6922)"
             id="g5858"
             style="fill:#ffffff">
            <path
               id="path5860"
               style="fill:#ffffff;fill-opacity:1;fill-rule:nonzero;stroke:none"
               d="m 0,0 c 0,-1.067 0.582,-2.134 1.756,-2.134 1.173,0 1.755,1.067 1.755,2.134 0,1.067 -0.582,2.134 -1.755,2.134 C 0.582,2.134 0,1.067 0,0 m 4.122,0 c 0,-1.436 -0.834,-2.648 -2.366,-2.648 -1.533,0 -2.368,1.212 -2.368,2.648 0,1.436 0.835,2.649 2.368,2.649 1.532,0 2.366,-1.213 2.366,-2.649" />
          </g>
          <g
             transform="translate(194.94,695.75)"
             id="g5862"
             style="fill:#ffffff">
            <path
               id="path5864"
               style="fill:#ffffff;fill-opacity:1;fill-rule:nonzero;stroke:none"
               d="M 0,0 C 0,0.98 -0.456,2.077 -1.611,2.077 -2.775,2.077 -3.26,1.038 -3.26,0 c 0,-1.008 0.524,-1.988 1.649,-1.988 C -0.553,-1.988 0,-1.018 0,0 m 0.61,-2.153 c -0.009,-1.494 -0.581,-2.405 -2.221,-2.405 -0.999,0 -1.988,0.446 -2.075,1.513 l 0.61,0 c 0.136,-0.738 0.786,-0.999 1.465,-0.999 1.126,0 1.611,0.669 1.611,1.891 l 0,0.679 -0.02,0 c -0.281,-0.611 -0.873,-1.028 -1.591,-1.028 -1.601,0 -2.26,1.144 -2.26,2.57 0,1.378 0.815,2.523 2.26,2.523 0.728,0 1.349,-0.457 1.591,-1.009 l 0.02,0 0,0.863 0.61,0 0,-4.598 z" />
          </g>
          <g
             transform="translate(196.4913,698.1948)"
             id="g5866"
             style="fill:#ffffff">
            <path
               id="path5868"
               style="fill:#ffffff;fill-opacity:1;fill-rule:nonzero;stroke:none"
               d="m 0,0 0.563,0 0,-1.174 0.019,0 c 0.31,0.806 0.989,1.28 1.892,1.242 l 0,-0.611 C 1.368,-0.485 0.612,-1.3 0.612,-2.338 l 0,-2.667 L 0,-5.005 0,0 Z" />
          </g>
          <g
             transform="translate(202.4894,695.9253)"
             id="g5870"
             style="fill:#ffffff">
            <path
               id="path5872"
               style="fill:#ffffff;fill-opacity:1;fill-rule:nonzero;stroke:none"
               d="m 0,0 -0.02,0 c -0.077,-0.146 -0.349,-0.194 -0.514,-0.223 -1.037,-0.185 -2.328,-0.174 -2.328,-1.154 0,-0.612 0.543,-0.991 1.115,-0.991 0.932,0 1.756,0.592 1.747,1.572 L 0,0 Z m -3.26,0.737 c 0.059,1.173 0.883,1.679 2.028,1.679 0.883,0 1.842,-0.272 1.842,-1.611 l 0,-2.658 c 0,-0.233 0.117,-0.368 0.359,-0.368 0.069,0 0.146,0.018 0.195,0.038 l 0,-0.514 C 1.028,-2.726 0.931,-2.736 0.766,-2.736 c -0.621,0 -0.718,0.35 -0.718,0.874 l -0.019,0 c -0.427,-0.65 -0.864,-1.019 -1.824,-1.019 -0.921,0 -1.678,0.455 -1.678,1.464 0,1.407 1.367,1.455 2.687,1.611 C -0.282,0.252 0,0.32 0,0.873 c 0,0.824 -0.592,1.028 -1.31,1.028 -0.756,0 -1.319,-0.35 -1.338,-1.164 l -0.612,0 z" />
          </g>
          <g
             transform="translate(204.1329,698.1948)"
             id="g5874"
             style="fill:#ffffff">
            <path
               id="path5876"
               style="fill:#ffffff;fill-opacity:1;fill-rule:nonzero;stroke:none"
               d="m 0,0 0.562,0 0,-0.844 0.03,0 c 0.32,0.602 0.844,0.99 1.639,0.99 0.659,0 1.251,-0.321 1.435,-0.98 0.301,0.659 0.932,0.98 1.592,0.98 1.095,0 1.658,-0.573 1.658,-1.756 l 0,-3.395 -0.611,0 0,3.366 c 0,0.824 -0.311,1.271 -1.183,1.271 -1.058,0 -1.358,-0.874 -1.358,-1.805 l 0,-2.832 -0.612,0 0,3.395 c 0.01,0.679 -0.271,1.242 -1.047,1.242 -1.058,0 -1.484,-0.796 -1.494,-1.844 l 0,-2.793 L 0,-5.005 0,0 Z" />
          </g>
          <g
             transform="translate(211.994,698.1948)"
             id="g5878"
             style="fill:#ffffff">
            <path
               id="path5880"
               style="fill:#ffffff;fill-opacity:1;fill-rule:nonzero;stroke:none"
               d="m 0,0 0.563,0 0,-0.844 0.029,0 c 0.32,0.602 0.844,0.99 1.639,0.99 0.66,0 1.251,-0.321 1.436,-0.98 0.301,0.659 0.931,0.98 1.591,0.98 1.096,0 1.658,-0.573 1.658,-1.756 l 0,-3.395 -0.611,0 0,3.366 c 0,0.824 -0.31,1.271 -1.183,1.271 -1.058,0 -1.358,-0.874 -1.358,-1.805 l 0,-2.832 -0.611,0 0,3.395 c 0.009,0.679 -0.272,1.242 -1.048,1.242 -1.057,0 -1.484,-0.796 -1.493,-1.844 l 0,-2.793 L 0,-5.005 0,0 Z" />
          </g>
          <g
             transform="translate(223.4603,696.0416)"
             id="g5882"
             style="fill:#ffffff">
            <path
               id="path5884"
               style="fill:#ffffff;fill-opacity:1;fill-rule:nonzero;stroke:none"
               d="M 0,0 C -0.029,0.921 -0.601,1.785 -1.592,1.785 -2.59,1.785 -3.143,0.912 -3.24,0 L 0,0 Z m -3.24,-0.514 c 0.009,-0.893 0.475,-1.97 1.648,-1.97 0.893,0 1.378,0.524 1.572,1.281 l 0.612,0 c -0.263,-1.135 -0.922,-1.794 -2.184,-1.794 -1.59,0 -2.259,1.222 -2.259,2.648 0,1.319 0.669,2.648 2.259,2.648 1.611,0 2.251,-1.406 2.203,-2.813 l -3.851,0 z" />
          </g>
        </g>
      </g>
    </g>
  </g>
</svg>
