<?xml version="1.0" encoding="utf-8"?>
<!-- Generator: Adobe Illustrator 25.4.1, SVG Export Plug-In . SVG Version: 6.00 Build 0)  -->
<svg version="1.1" id="Layer_1" xmlns="http://www.w3.org/2000/svg" xmlns:xlink="http://www.w3.org/1999/xlink" x="0px" y="0px"
	 viewBox="0 0 623.62 141.73" style="enable-background:new 0 0 623.62 141.73;" xml:space="preserve">
<style type="text/css">
	.st0{fill:#FFFFFF;}
	.st1{fill:none;stroke:#FFFFFF;stroke-width:2;stroke-miterlimit:10;}
</style>
<g>
	<path class="st0" d="M85.14,22.48c1.39,0,2.14,0.76,2.14,2.27v14.37c0,1.39-0.76,2.14-2.14,2.14H62.08v69.05
		c0,1.51-0.76,2.27-2.14,2.27H44.06c-1.39,0-2.14-0.76-2.14-2.27V41.25H18.86c-1.51,0-2.27-0.76-2.27-2.14V24.75
		c0-1.51,0.76-2.27,2.27-2.27H85.14z"/>
	<path class="st0" d="M127.85,114.09c-12.85,0-22.43-3.78-33.14-12.35c-1.13-0.88-1.26-1.89-0.5-3.02l8.57-12.22
		c0.76-1.01,1.89-1.26,3.02-0.38c7.56,5.29,15.25,8.57,23.44,8.69c8.19,0,13.99-2.77,13.99-8.32c0-6.43-7.56-8.44-16.25-10.21
		c-12.73-2.65-31.63-8.95-31.63-29.36c0-17.51,15-26.08,34.15-26.08c11.09,0,20.04,2.77,30.49,9.7c1.26,0.76,1.51,1.89,0.63,3.02
		l-8.06,12.1c-0.76,1.13-1.89,1.39-3.15,0.63c-6.55-4.16-13.86-6.3-20.92-6.3c-8.95,0-12.48,3.02-12.48,7.56
		c0,5.54,5.29,7.06,16,9.58c17.52,4.28,32.01,10.08,32.01,28.73C164.02,103.5,149.9,114.09,127.85,114.09z"/>
	<path class="st0" d="M244.02,109.93c0.88,1.39,0.25,2.65-1.51,2.65h-18.52c-1.13,0-2.02-0.63-2.52-1.64l-15.25-28.48l-15.12,28.48
		c-0.63,1.01-1.39,1.64-2.65,1.64h-18.52c-1.64,0-2.39-1.26-1.51-2.65l25.2-42.59l-23.19-42.21c-0.88-1.51-0.13-2.65,1.64-2.65
		h17.77c1.13,0,2.02,0.5,2.52,1.64l13.86,28.6l13.86-28.6c0.5-1.13,1.39-1.64,2.52-1.64h17.89c1.64,0,2.39,1.13,1.64,2.65
		l-23.19,42.21L244.02,109.93z"/>
</g>
<g>
	<path class="st0" d="M353.31,23.35c0.24,0,0.43,0.14,0.43,0.38v1.68c0,0.24-0.19,0.38-0.43,0.38h-10.8v31.49
		c0,0.24-0.19,0.38-0.43,0.38h-1.82c-0.24,0-0.43-0.14-0.43-0.38V25.8h-10.71c-0.24,0-0.38-0.14-0.38-0.38v-1.68
		c0-0.24,0.14-0.38,0.38-0.38H353.31z"/>
	<path class="st0" d="M367.32,32.42c6.14,0,10.23,3.12,10.23,10.08v14.79c0,0.24-0.14,0.38-0.38,0.38h-1.73
		c-0.24,0-0.43-0.14-0.43-0.38V42.55c0-5.52-2.78-7.78-7.82-7.78c-2.45,0-4.85,0.62-6.77,1.58v20.93c0,0.24-0.14,0.38-0.38,0.38
		h-1.73c-0.24,0-0.43-0.14-0.43-0.38V23.73c0-0.24,0.19-0.38,0.43-0.38h1.73c0.24,0,0.38,0.14,0.38,0.38v10.27
		C362.47,33.05,364.78,32.42,367.32,32.42z"/>
	<path class="st0" d="M384.74,57.67c-0.24,0-0.43-0.14-0.43-0.38V34.63c0-0.19,0.1-0.38,0.34-0.48c2.35-1.1,5.33-1.73,8.11-1.73
		c1.58,0,3.26,0.19,4.9,0.43c0.29,0.05,0.38,0.19,0.38,0.43v1.49c0,0.24-0.19,0.38-0.43,0.34c-1.44-0.24-3.07-0.38-4.56-0.38
		c-2.21,0-4.46,0.43-6.19,1.15v21.41c0,0.24-0.14,0.38-0.38,0.38H384.74z"/>
	<path class="st0" d="M420.12,46.25c0,0.24-0.19,0.38-0.43,0.38h-16.56v2.69c0,4.18,3.26,6.58,7.25,6.58c3.6,0,6.05-1.54,7.82-3.07
		c0.24-0.14,0.43-0.14,0.58,0.1l0.86,1.1c0.19,0.19,0.19,0.38-0.05,0.58c-2.21,1.92-5.18,3.6-9.26,3.6c-5.09,0-9.79-3.17-9.79-8.88
		v-7.58c0-6.14,4.37-9.31,9.84-9.31c5.42,0,9.74,3.17,9.74,9.31V46.25z M410.38,34.78c-4.37,0-7.25,2.35-7.25,6.96v2.74h14.5v-2.74
		C417.62,37.18,414.6,34.78,410.38,34.78z"/>
	<path class="st0" d="M434.38,32.42c5.95,0,9.17,3.31,9.17,9.07v14.59c0,0.19-0.1,0.38-0.34,0.48c-2.11,0.82-5.38,1.63-8.93,1.63
		c-5.52,0-10.08-2.59-10.08-7.78c0-4.94,3.89-7.58,10.08-7.58c2.45,0,4.9,0.43,6.72,0.77v-2.06c0-4.27-1.87-6.77-6.72-6.77
		c-2.88,0-5.57,0.86-7.34,1.97c-0.19,0.14-0.38,0.1-0.53-0.1l-0.82-1.25c-0.14-0.19-0.14-0.38,0-0.48
		C427.7,33.43,430.78,32.42,434.38,32.42z M434.28,55.9c2.69,0,5.04-0.58,6.72-1.15v-8.93c-1.78-0.38-4.32-0.72-6.72-0.72
		c-4.99,0-7.49,1.92-7.49,5.33C426.79,53.88,429.91,55.9,434.28,55.9z"/>
	<path class="st0" d="M457.99,55.8c0.62,0,1.73-0.05,2.64-0.1c0.24-0.05,0.38,0.1,0.38,0.38v1.54c0,0.24-0.1,0.38-0.38,0.43
		c-0.86,0.1-2.06,0.14-2.74,0.14c-4.7,0-7.78-2.83-7.78-8.16V27.19c0-0.24,0.14-0.38,0.38-0.38h1.54c0.24,0,0.38,0.14,0.43,0.38
		l0.14,5.86h7.34c0.24,0,0.38,0.19,0.38,0.43v1.49c0,0.24-0.14,0.38-0.38,0.38h-7.3v14.59C452.66,53.59,454.49,55.8,457.99,55.8z"/>
	<path class="st0" d="M483.62,46.25c0,0.24-0.19,0.38-0.43,0.38h-16.56v2.69c0,4.18,3.26,6.58,7.25,6.58c3.6,0,6.05-1.54,7.82-3.07
		c0.24-0.14,0.43-0.14,0.58,0.1l0.86,1.1c0.19,0.19,0.19,0.38-0.05,0.58c-2.21,1.92-5.18,3.6-9.26,3.6c-5.09,0-9.79-3.17-9.79-8.88
		v-7.58c0-6.14,4.37-9.31,9.84-9.31c5.42,0,9.74,3.17,9.74,9.31V46.25z M473.88,34.78c-4.37,0-7.25,2.35-7.25,6.96v2.74h14.5v-2.74
		C481.13,37.18,478.1,34.78,473.88,34.78z"/>
	<path class="st0" d="M489.86,57.67c-0.24,0-0.43-0.14-0.43-0.38V34.78c0-0.19,0.1-0.38,0.34-0.48c2.64-1.15,5.71-1.87,8.93-1.87
		c6.38,0,10.42,3.17,10.42,9.98v14.88c0,0.24-0.14,0.38-0.38,0.38H507c-0.24,0-0.43-0.14-0.43-0.38V42.5c0-5.38-2.83-7.73-7.87-7.73
		c-2.4,0-4.85,0.48-6.72,1.15v21.36c0,0.24-0.14,0.38-0.38,0.38H489.86z"/>
	<path class="st0" d="M534.69,46.25c0,0.24-0.19,0.38-0.43,0.38H517.7v2.69c0,4.18,3.26,6.58,7.25,6.58c3.6,0,6.05-1.54,7.82-3.07
		c0.24-0.14,0.43-0.14,0.58,0.1l0.86,1.1c0.19,0.19,0.19,0.38-0.05,0.58c-2.21,1.92-5.18,3.6-9.26,3.6c-5.09,0-9.79-3.17-9.79-8.88
		v-7.58c0-6.14,4.37-9.31,9.84-9.31c5.42,0,9.74,3.17,9.74,9.31V46.25z M524.95,34.78c-4.37,0-7.25,2.35-7.25,6.96v2.74h14.5v-2.74
		C532.2,37.18,529.17,34.78,524.95,34.78z"/>
	<path class="st0" d="M556.77,23.73c0-0.24,0.14-0.38,0.38-0.38h1.73c0.29,0,0.43,0.14,0.43,0.38v32.31c0,0.19-0.1,0.38-0.34,0.43
		c-2.64,1.06-5.86,1.73-8.93,1.73c-6.29,0-10.42-3.17-10.42-10.32V42.7c0-6.77,4.03-10.27,10.23-10.27c2.59,0,4.99,0.77,6.91,1.92
		V23.73z M550.1,55.9c2.4,0,4.8-0.43,6.67-1.1v-18c-1.87-1.25-4.22-2.06-6.72-2.06c-4.99,0-7.82,2.4-7.82,7.97v5.18
		C542.23,53.59,545.11,55.9,550.1,55.9z"/>
	<path class="st0" d="M342.65,113.2c-4.8,0-8.16-1.49-11.91-4.56c-0.19-0.19-0.19-0.38-0.05-0.58l1.01-1.39
		c0.14-0.19,0.34-0.24,0.58-0.1c3.36,2.74,6.48,4.08,10.42,4.13c5.28,0,9.36-2.26,9.36-6.91c0-4.18-3.02-5.86-9.84-7.39
		c-6.67-1.54-11.42-4.18-11.42-9.94c0-5.95,5.42-8.64,11.71-8.64c4.37,0,7.78,1.3,11.18,3.84c0.24,0.14,0.19,0.38,0.1,0.58
		l-0.96,1.34c-0.14,0.24-0.38,0.29-0.58,0.14c-2.98-2.26-6.29-3.36-10.03-3.41c-4.8,0-8.74,2.02-8.74,6.24
		c0,4.08,3.41,5.86,9.36,7.25c7.63,1.82,11.91,4.13,11.91,9.98C354.75,110.08,349.56,113.2,342.65,113.2z"/>
	<path class="st0" d="M369.67,87.42c6.24,0,10.37,3.17,10.37,10.32v5.18c0,6.77-4.03,10.27-10.27,10.27c-2.54,0-4.99-0.77-6.86-1.92
		v10.13c0,0.24-0.14,0.38-0.38,0.38h-1.73c-0.24,0-0.43-0.14-0.43-0.38V89.63c0-0.24,0.1-0.38,0.29-0.48
		C363.34,88.1,366.55,87.42,369.67,87.42z M377.45,102.93v-5.18c0-5.71-2.88-8.02-7.83-8.02c-2.45,0-4.8,0.43-6.72,1.15v17.91
		c1.87,1.3,4.27,2.11,6.72,2.11C374.66,110.9,377.45,108.5,377.45,102.93z"/>
	<path class="st0" d="M404.91,101.25c0,0.24-0.19,0.38-0.43,0.38h-16.56v2.69c0,4.18,3.26,6.58,7.25,6.58c3.6,0,6.05-1.54,7.82-3.07
		c0.24-0.14,0.43-0.14,0.58,0.1l0.86,1.1c0.19,0.19,0.19,0.38-0.05,0.58c-2.21,1.92-5.18,3.6-9.26,3.6c-5.09,0-9.79-3.17-9.79-8.88
		v-7.58c0-6.14,4.37-9.31,9.84-9.31c5.42,0,9.75,3.17,9.75,9.31V101.25z M395.16,89.78c-4.37,0-7.25,2.35-7.25,6.96v2.74h14.5v-2.74
		C402.41,92.18,399.38,89.78,395.16,89.78z"/>
	<path class="st0" d="M419.74,113.2c-6.14,0-9.84-3.94-9.84-9.07V96.5c0-5.14,3.7-9.07,9.84-9.07c2.88,0,5.38,0.86,7.73,2.5
		c0.24,0.19,0.29,0.38,0.14,0.58l-0.82,1.25c-0.14,0.14-0.34,0.24-0.58,0.1c-2.02-1.39-4.08-2.06-6.48-2.06
		c-4.71,0-7.3,2.93-7.3,6.72v7.63c0,3.84,2.64,6.77,7.3,6.77c2.54,0,4.85-0.82,7.1-2.45c0.24-0.19,0.43-0.14,0.58,0.05l0.82,1.2
		c0.14,0.24,0.14,0.43-0.05,0.58C425.69,112.19,423.05,113.2,419.74,113.2z"/>
	<path class="st0" d="M434.47,82.86c-1.01,0-1.73-0.72-1.73-1.68c0-1.01,0.72-1.73,1.73-1.73c0.96,0,1.68,0.72,1.68,1.73
		C436.15,82.14,435.43,82.86,434.47,82.86z M433.56,112.67c-0.24,0-0.38-0.14-0.38-0.38V88.38c0-0.29,0.14-0.43,0.38-0.43h1.78
		c0.24,0,0.38,0.14,0.38,0.43v23.91c0,0.24-0.14,0.38-0.38,0.38H433.56z"/>
	<path class="st0" d="M461.54,101.25c0,0.24-0.19,0.38-0.43,0.38h-16.56v2.69c0,4.18,3.26,6.58,7.25,6.58c3.6,0,6.05-1.54,7.82-3.07
		c0.24-0.14,0.43-0.14,0.58,0.1l0.86,1.1c0.19,0.19,0.19,0.38-0.05,0.58c-2.21,1.92-5.18,3.6-9.26,3.6c-5.09,0-9.79-3.17-9.79-8.88
		v-7.58c0-6.14,4.37-9.31,9.84-9.31c5.42,0,9.75,3.17,9.75,9.31V101.25z M451.8,89.78c-4.37,0-7.25,2.35-7.25,6.96v2.74h14.5v-2.74
		C459.05,92.18,456.02,89.78,451.8,89.78z"/>
	<path class="st0" d="M475.17,113.2c-3.46,0-6.58-1.06-9.26-3.12c-0.24-0.14-0.24-0.34-0.14-0.53l0.82-1.34
		c0.14-0.24,0.34-0.29,0.58-0.1c2.4,1.78,5.09,2.78,8.06,2.78c3.94,0,6.72-1.68,6.72-4.8c0-3.41-3.55-4.13-6.72-4.8
		c-3.74-0.72-9.07-2.16-9.07-7.3c0-4.32,4.08-6.58,8.88-6.58c3.31,0,5.9,0.91,8.4,2.3c0.24,0.14,0.29,0.34,0.14,0.58l-0.77,1.3
		c-0.1,0.19-0.34,0.29-0.58,0.14c-2.06-1.2-4.66-1.97-7.3-1.97c-3.74,0-6.29,1.58-6.29,4.22c0,3.31,3.46,4.22,7.06,4.99
		c4.13,0.86,8.83,1.92,8.83,7.01C484.53,110.42,480.93,113.2,475.17,113.2z"/>
	<path class="st0" d="M504.6,112.29c0,0.24-0.14,0.38-0.38,0.38h-1.87c-0.24,0-0.38-0.14-0.38-0.38V78.73
		c0-0.24,0.14-0.38,0.38-0.38h1.87c0.24,0,0.38,0.14,0.38,0.38V112.29z"/>
	<path class="st0" d="M513,112.67c-0.24,0-0.43-0.14-0.43-0.38V89.78c0-0.19,0.1-0.38,0.34-0.48c2.64-1.15,5.71-1.87,8.93-1.87
		c6.38,0,10.42,3.17,10.42,9.98v14.88c0,0.24-0.14,0.38-0.38,0.38h-1.73c-0.24,0-0.43-0.14-0.43-0.38V97.5
		c0-5.38-2.83-7.73-7.87-7.73c-2.4,0-4.85,0.48-6.72,1.15v21.36c0,0.24-0.14,0.38-0.38,0.38H513z"/>
	<path class="st0" d="M555.28,78.73c0-0.24,0.14-0.38,0.38-0.38h1.73c0.29,0,0.43,0.14,0.43,0.38v32.31c0,0.19-0.1,0.38-0.34,0.43
		c-2.64,1.06-5.86,1.73-8.93,1.73c-6.29,0-10.42-3.17-10.42-10.32V97.7c0-6.77,4.03-10.27,10.23-10.27c2.59,0,4.99,0.77,6.91,1.92
		V78.73z M548.61,110.9c2.4,0,4.8-0.43,6.67-1.1v-18c-1.87-1.25-4.22-2.06-6.72-2.06c-4.99,0-7.82,2.4-7.82,7.97v5.18
		C540.74,108.59,543.62,110.9,548.61,110.9z"/>
	<path class="st0" d="M583.6,101.25c0,0.24-0.19,0.38-0.43,0.38h-16.56v2.69c0,4.18,3.26,6.58,7.25,6.58c3.6,0,6.05-1.54,7.82-3.07
		c0.24-0.14,0.43-0.14,0.58,0.1l0.86,1.1c0.19,0.19,0.19,0.38-0.05,0.58c-2.21,1.92-5.18,3.6-9.26,3.6c-5.09,0-9.79-3.17-9.79-8.88
		v-7.58c0-6.14,4.37-9.31,9.84-9.31c5.42,0,9.74,3.17,9.74,9.31V101.25z M573.86,89.78c-4.37,0-7.25,2.35-7.25,6.96v2.74h14.5v-2.74
		C581.11,92.18,578.08,89.78,573.86,89.78z"/>
	<path class="st0" d="M606.93,112.19c0.19,0.24,0.1,0.48-0.24,0.48h-2.16c-0.19,0-0.38-0.1-0.48-0.24l-7.54-10.51l-7.58,10.51
		c-0.1,0.14-0.29,0.24-0.48,0.24h-2.16c-0.34,0-0.43-0.24-0.24-0.48l8.88-12.1l-8.35-11.67c-0.14-0.24-0.05-0.48,0.24-0.48h2.11
		c0.19,0,0.38,0.1,0.48,0.29l7.1,10.03l7.06-10.03c0.1-0.19,0.34-0.29,0.48-0.29h2.11c0.29,0,0.43,0.24,0.24,0.48l-8.35,11.67
		L606.93,112.19z"/>
</g>
<line class="st1" x1="289.38" y1="23.35" x2="289.38" y2="114.08"/>
</svg>
